<svg width="26" height="24" viewBox="0 0 26 24" fill="none" xmlns="http://www.w3.org/2000/svg">
<path d="M19.25 0.0625H6.75C5.17589 0.0644846 3.66681 0.690678 2.55375 1.80375C1.44068 2.91681 0.814485 4.42589 0.8125 6V22.25C0.812663 22.4353 0.867735 22.6164 0.97076 22.7704C1.07378 22.9244 1.22014 23.0445 1.39135 23.1154C1.56255 23.1862 1.75092 23.2048 1.93267 23.1687C2.11442 23.1326 2.28139 23.0434 2.4125 22.9125L5.43 19.895C5.5751 19.7495 5.74755 19.6342 5.93741 19.5557C6.12727 19.4772 6.33079 19.437 6.53625 19.4375H19.25C20.8241 19.4355 22.3332 18.8093 23.4463 17.6963C24.5593 16.5832 25.1855 15.0741 25.1875 13.5V6C25.1855 4.42589 24.5593 2.91681 23.4463 1.80375C22.3332 0.690678 20.8241 0.0644846 19.25 0.0625ZM23.3125 13.5C23.3112 14.577 22.8827 15.6096 22.1212 16.3712C21.3596 17.1327 20.327 17.5612 19.25 17.5625H6.53625C6.08449 17.5611 5.63695 17.6495 5.21959 17.8224C4.80224 17.9954 4.42339 18.2495 4.105 18.57L2.6875 19.9862V6C2.68882 4.92296 3.11726 3.89042 3.87884 3.12884C4.64042 2.36726 5.67296 1.93882 6.75 1.9375H19.25C20.327 1.93882 21.3596 2.36726 22.1212 3.12884C22.8827 3.89042 23.3112 4.92296 23.3125 6V13.5Z" fill="#212121"/>
</svg>
