<svg width="30" height="30" viewBox="0 0 30 30" fill="none" xmlns="http://www.w3.org/2000/svg">
<path d="M6.17103 25.6473L13.7416 22.5286C13.9312 22.4001 14.1207 22.2717 14.2492 22.1494L26.718 6.94713C27.0971 6.3723 27.036 5.61402 26.5284 5.16761L20.6089 0.269371C20.1197 -0.0914238 19.3676 -0.14646 18.8906 0.458941L6.3606 15.6551C6.23219 15.8447 6.17103 16.0343 6.10377 16.2299L4.51383 24.3081C4.43433 25.6901 5.54117 25.9286 6.17103 25.6473ZM19.973 2.99673L23.9784 6.30503L13.1117 19.581L9.143 16.2972L19.973 2.99673ZM8.15846 18.7677L10.8736 21.0181L7.37572 22.4613L8.15846 18.7677Z" fill="#212121"/>
<path d="M28.6868 27.4268H7.31433C7.31433 27.4268 2.88084 27.6347 2.71573 26.4973C2.71573 26.4361 2.60566 26.1548 3.18048 25.4577C3.62689 24.8829 3.55962 24.1246 3.05206 23.6782C2.47724 23.2318 1.71896 23.2991 1.27255 23.8066C0.0617486 25.2681 -0.25624 26.5401 0.318585 27.6897C1.87795 30.5944 7.12476 29.9096 7.37548 29.9707H28.6868C29.3839 29.9707 29.9588 29.3959 29.9588 28.6987C29.9649 27.9955 29.3901 27.4268 28.6868 27.4268Z" fill="#212121"/>
</svg>
