<svg width="26" height="30" viewBox="0 0 26 30" fill="none" xmlns="http://www.w3.org/2000/svg">
<path d="M23.3125 5.625H20.5V1.875C20.5 0.839531 19.6605 0 18.625 0H7.375C6.33953 0 5.5 0.839531 5.5 1.875V5.625H2.6875C1.65203 5.625 0.8125 6.46453 0.8125 7.5V9.375H25.1875V7.5C25.1875 6.46453 24.348 5.625 23.3125 5.625ZM9.25 5.625V3.75H16.75V5.625H9.25Z" fill="#212121"/>
<path d="M2.6875 28.1252C2.6875 29.1607 3.5268 30 4.56227 30H21.438C22.4732 30 23.3125 29.1607 23.3125 28.1255V28.1252V11.25H2.6875V28.1252ZM16.75 15.9375C16.75 15.4198 17.1698 15 17.6875 15C18.2052 15 18.625 15.4198 18.625 15.9375V25.3125C18.625 25.8302 18.2052 26.25 17.6875 26.25C17.1698 26.25 16.75 25.8302 16.75 25.3125V15.9375ZM12.0625 15.9375C12.0625 15.4198 12.4823 15 13 15C13.5177 15 13.9375 15.4198 13.9375 15.9375V25.3125C13.9375 25.8302 13.5177 26.25 13 26.25C12.4823 26.25 12.0625 25.8302 12.0625 25.3125V15.9375ZM7.375 15.9375C7.375 15.4198 7.79477 15 8.3125 15C8.83023 15 9.25 15.4198 9.25 15.9375V25.3125C9.25 25.8302 8.83023 26.25 8.3125 26.25C7.79477 26.25 7.375 25.8302 7.375 25.3125V15.9375Z" fill="#212121"/>
</svg>
