<svg width="30" height="18" viewBox="0 0 30 18" fill="none" xmlns="http://www.w3.org/2000/svg">
<path d="M29.4642 8.31382C29.202 7.97852 22.9554 0.100708 15.0004 0.100708C7.04458 0.100708 0.797955 7.97852 0.535807 8.31382L0 8.99964L0.535807 9.68545C0.797955 10.0208 7.04458 17.8989 15.0004 17.8989C22.9554 17.8989 29.202 10.0208 29.4642 9.68545L30 8.99964L29.4642 8.31382ZM15.0004 15.6714C9.4054 15.6714 4.52187 10.8272 2.87955 9.00001C4.52261 7.1724 9.40577 2.32897 15.0004 2.32897C20.5946 2.32897 25.4781 7.17277 27.1208 9.00001C25.4774 10.8276 20.5942 15.6714 15.0004 15.6714Z" fill="#212121"/>
<path d="M15 2.90524C11.6389 2.90524 8.90454 5.63923 8.90454 9C8.90454 12.3615 11.6389 15.0959 15 15.0959C18.3612 15.0959 21.0955 12.3615 21.0955 9C21.0955 5.63923 18.3612 2.90524 15 2.90524ZM15 12.8676C12.8672 12.8676 11.1324 11.1325 11.1324 8.99963C11.1324 6.86754 12.8672 5.13276 15 5.13276C17.1325 5.13276 18.8677 6.86754 18.8677 8.99963C18.8677 11.1325 17.1325 12.8676 15 12.8676Z" fill="#212121"/>
</svg>
