<svg width="31" height="29" viewBox="0 0 31 29" fill="none" xmlns="http://www.w3.org/2000/svg">
<path d="M30.9686 7.26939C30.9686 8.90711 30.9749 10.5419 30.9623 12.1796C30.9591 12.5077 30.9149 12.8359 30.8548 13.161C30.7821 13.5572 30.5673 13.8912 30.2607 14.178C25.1952 18.9108 20.1297 23.6525 15.0641 28.3912C14.233 29.1687 13.0575 29.1657 12.2232 28.3882C8.54178 24.9443 4.86349 21.5004 1.18204 18.0594C1.00192 17.8909 0.821799 17.7254 0.644837 17.5569C-0.211534 16.7528 -0.214694 15.6649 0.641677 14.8608C4.13036 11.5972 7.61589 8.33657 11.1046 5.07296C12.6593 3.61557 14.2204 2.16705 15.7688 0.703744C16.2112 0.283969 16.7421 0.0592998 17.352 0.0415628C18.4011 0.0060888 19.4534 0.00608882 20.5025 0.00313265C23.2044 0.000176486 25.9062 0.000176486 28.6049 0.00313265C29.7235 0.00313265 30.6589 0.703744 30.9054 1.72362C30.9496 1.9069 30.9654 2.10201 30.9654 2.29121C30.9686 3.94962 30.9686 5.60803 30.9686 7.26939ZM13.6895 27.1526C13.7337 27.1023 13.7843 27.0314 13.8506 26.9693C18.7424 22.3961 23.631 17.817 28.5385 13.2556C28.9114 12.9098 29.0536 12.558 29.0504 12.085C29.0378 8.83025 29.0441 5.57255 29.0441 2.31781C29.0441 1.93647 28.8988 1.79753 28.4848 1.79753C25.0277 1.79753 21.5738 1.79753 18.1167 1.79753C17.9081 1.79753 17.6933 1.79753 17.4879 1.833C17.352 1.85665 17.2003 1.91282 17.1023 2.00446C12.0905 6.68703 7.08184 11.3755 2.07318 16.061C2.02577 16.1054 1.98469 16.1497 1.93413 16.2029C5.85258 19.8508 9.75523 23.4869 13.6895 27.1526Z" fill="#51004E"/>
<path d="M23.2484 3.6213C25.3909 3.63904 27.1258 5.27971 27.0973 7.25739C27.0657 9.29419 25.3309 10.8728 23.1505 10.8521C21.0364 10.8314 19.3458 9.17889 19.3679 7.15688C19.39 5.21467 21.1565 3.60356 23.2484 3.6213ZM23.22 9.05769C24.2944 9.06065 25.1666 8.25361 25.176 7.24556C25.1855 6.24933 24.3039 5.42161 23.2326 5.42161C22.1708 5.42161 21.2924 6.23455 21.2892 7.22782C21.2829 8.23292 22.1487 9.05474 23.22 9.05769Z" fill="#51004E"/>
</svg>
